<svg height="97" viewBox="0 0 84 97" width="84" xmlns="http://www.w3.org/2000/svg"><g fill="none" fill-rule="evenodd"><path d="m-10-87h584v246h-584z" fill="#d8d8d8" stroke="#979797"/><g fill="#fff"><path d="m21.1772453 5.44189453c-1.9896716 1.15896104-4.7057229 2.86861196-6.4722304 4.318573-9.39044774 7.71338957-15.32059699 19.31055847-14.65361191 32.26320777.57295522 11.1184676 4.25140298 20.820987 8.47773134 28.4902857 2.23038807 4.0462858 5.79395347 8.6274275 7.91275937 11.6281288l35.5561524-35.0009765c1.7310314-1.7399413 4.5874127-3.2479724 4.6318359-5.1174393.0468232-1.9704651-4.0233926-5.5028509-5.8447265-7.3322677z"/><path d="m82.857422 68.690918.839175-26.6672427c0-7.9703766-3.3938043-16.8716449-7.2327296-23.2194761l-14.5327149 14.8686522c-1.6322819 1.6401051-5.39522 6.5888073-5.5278322 8.3508245-.1562555 2.076166 3.0485422 3.1445741 4.9677733 5.0730038.0000001 0 11.3511643 11.410498 21.4863284 21.5942383z"/><path d="m15.9750448 82.2194675c3.6232836 5.0175455 6.4028059 8.0598182 6.4028059 8.0598182l50.2432836 6.0051818 3.3938508-27.6815324h6.7952239l-19.4088413-21.6678767c-1.6474014-1.655882-5.3171534-6.8837453-7.0908203-7.0029296-2.0463347-.1375068-3.8346804 5.6115744-5.7400399 7.526066z"/><path d="m76.9377313 19.1518312c-2.2429253-3.463026-4.9672835-6.5821429-8.0978507-9.24019484-7.2804179-6.18028571-16.6871642-9.91163636-26.9652537-9.91163636-7.2967165 0-15.023614 2.29991031-21.1192558 5.60546875l29.3374024 29.65234375c2.0351082 2.0448622 4.3476586 6.3432175 6.6708984 5.8012695 1.7271558-.402898 3.4864973-5.139171 5.0026565-6.6631339z"/></g><g transform="translate(9 10)"><path d="m39.617 28.024-23.38-23.38c-1.587.92-3.099 1.953-4.508 3.104-7.49 6.123-12.22 15.329-11.688 25.611.457 8.826 3.391 16.528 6.762 22.616 1.779 3.212 3.649 6.073 5.339 8.455l27.476-27.476c2.836-2.837 2.83-6.1-.001-8.93z" fill="#67c4d0"/><path d="m49.985 36.953s8.689 8.689 16.773 16.773v-20.367c0-6.327-1.773-12.235-4.835-17.274l-11.938 11.939c-2.836 2.836-2.83 6.099 0 8.929z" fill="#d9dc41"/><path d="m40.336 37.673-27.594 27.594c2.89 3.983 5.107 6.398 5.107 6.398l40.075 4.767 2.707-21.974h5.42l-16.785-16.785c-2.83-2.831-6.093-2.837-8.93 0z" fill="#55aeb5"/><path d="m49.266 27.304 12.101-12.101c-1.789-2.749-3.962-5.225-6.459-7.335-5.807-4.906-13.31-7.868-21.508-7.868-5.82 0-11.381 1.501-16.243 4.125l23.18 23.18c2.83 2.83 6.093 2.836 8.929-.001z" fill="#c1c035"/></g></g></svg>